<svg width="1600" height="1066" viewBox="0 0 1600 1066" fill="none" xmlns="http://www.w3.org/2000/svg">
  <rect width="1600" height="1066" fill="#EEF3F8"/>
  <rect y="734" width="1600" height="332" fill="#CFD9E4"/>
  <rect x="104" y="376" width="350" height="382" rx="32" fill="#102A43"/>
  <rect x="148" y="418" width="264" height="140" rx="20" fill="#F4F7FB"/>
  <rect x="520" y="470" width="296" height="288" rx="32" fill="#FFFFFF"/>
  <rect x="560" y="510" width="218" height="106" rx="20" fill="#C79A3B"/>
  <rect x="896" y="338" width="604" height="420" rx="32" fill="#DCE4ED"/>
  <path d="M944 630C988 568 1048 534 1124 534C1204 534 1266 572 1306 630C1258 682 1196 708 1120 708C1050 708 992 682 944 630Z" fill="#102A43"/>
  <path d="M1084 558C1104 510 1140 484 1194 484C1248 484 1288 514 1310 558" stroke="#C79A3B" stroke-width="28" stroke-linecap="round"/>
  <circle cx="1068" cy="814" r="76" fill="#1F4C73"/>
  <circle cx="1286" cy="814" r="76" fill="#C79A3B"/>
  <circle cx="726" cy="828" r="66" fill="#102A43"/>
  <text x="110" y="132" fill="#102A43" font-family="Arial, sans-serif" font-size="64" font-weight="700">Community Outreach</text>
</svg>
