<svg width="1600" height="1066" viewBox="0 0 1600 1066" fill="none" xmlns="http://www.w3.org/2000/svg">
  <rect width="1600" height="1066" fill="#0F2235"/>
  <rect y="758" width="1600" height="308" fill="#162F49"/>
  <circle cx="1318" cy="168" r="64" fill="#F2D39A"/>
  <rect x="98" y="232" width="204" height="526" rx="18" fill="#243E5B"/>
  <rect x="326" y="160" width="250" height="598" rx="18" fill="#2B445E"/>
  <rect x="612" y="282" width="180" height="476" rx="18" fill="#34526F"/>
  <rect x="818" y="118" width="262" height="640" rx="18" fill="#243E5B"/>
  <rect x="1120" y="214" width="188" height="544" rx="18" fill="#34526F"/>
  <rect x="1342" y="274" width="152" height="484" rx="18" fill="#2B445E"/>
  <rect x="418" y="606" width="760" height="112" rx="56" fill="#C79A3B"/>
  <rect x="458" y="640" width="680" height="32" rx="16" fill="#102A43"/>
  <circle cx="606" cy="800" r="70" fill="#F4F7FB"/>
  <circle cx="810" cy="820" r="70" fill="#C79A3B"/>
  <circle cx="1016" cy="800" r="70" fill="#F4F7FB"/>
  <rect x="548" y="834" width="530" height="110" rx="55" fill="#FFFFFF" fill-opacity="0.14"/>
  <text x="116" y="132" fill="#F4F7FB" font-family="Arial, sans-serif" font-size="64" font-weight="700">A Night Out With Local One</text>
</svg>
